<svg xmlns="http://www.w3.org/2000/svg" viewBox="0 0 100 100" role="img" aria-labelledby="title desc">
  <title id="title">Jingle candidate K-01</title>
  <desc id="desc">Single-subject drawer slot: an open pocket slot with compact tools emerging and one gold signal dot.</desc>
  <defs>
    <linearGradient id="k01-bg" x1="16" y1="8" x2="84" y2="94" gradientUnits="userSpaceOnUse">
      <stop offset="0" stop-color="#26302C"/>
      <stop offset=".52" stop-color="#111817"/>
      <stop offset="1" stop-color="#050707"/>
    </linearGradient>
    <radialGradient id="k01-glow" cx="54" cy="36" r="50" gradientUnits="userSpaceOnUse">
      <stop offset="0" stop-color="#315442" stop-opacity=".68"/>
      <stop offset=".58" stop-color="#10231B" stop-opacity=".22"/>
      <stop offset="1" stop-color="#000000" stop-opacity="0"/>
    </radialGradient>
    <linearGradient id="k01-slot" x1="22" y1="37" x2="80" y2="78" gradientUnits="userSpaceOnUse">
      <stop offset="0" stop-color="#262F35"/>
      <stop offset=".5" stop-color="#12191D"/>
      <stop offset="1" stop-color="#06090B"/>
    </linearGradient>
    <linearGradient id="k01-lip" x1="24" y1="43" x2="78" y2="69" gradientUnits="userSpaceOnUse">
      <stop offset="0" stop-color="#7DF8A8"/>
      <stop offset=".48" stop-color="#30DE7A"/>
      <stop offset="1" stop-color="#0D8F5A"/>
    </linearGradient>
    <linearGradient id="k01-tool" x1="37" y1="25" x2="65" y2="58" gradientUnits="userSpaceOnUse">
      <stop offset="0" stop-color="#F8FCFF"/>
      <stop offset="1" stop-color="#AEB9C1"/>
    </linearGradient>
    <linearGradient id="k01-gold" x1="67" y1="25" x2="79" y2="38" gradientUnits="userSpaceOnUse">
      <stop offset="0" stop-color="#FFF1A8"/>
      <stop offset=".5" stop-color="#F3B735"/>
      <stop offset="1" stop-color="#B97811"/>
    </linearGradient>
    <filter id="k01-shadow" x="-20%" y="-20%" width="140%" height="150%">
      <feDropShadow dx="0" dy="8" stdDeviation="5" flood-color="#000000" flood-opacity=".38"/>
    </filter>
    <clipPath id="k01-mouth">
      <path d="M25.5 56.6C32.9 50.4 42.1 47.4 52.7 48C63.1 48.6 71.1 52.7 76.5 60.2V70.4C70.4 75 61.6 77.8 50.4 77.8C39.3 77.8 31 74.9 25.5 69.2Z"/>
    </clipPath>
  </defs>
  <rect x="6" y="6" width="88" height="88" rx="25" fill="url(#k01-bg)"/>
  <rect x="6" y="6" width="88" height="88" rx="25" fill="url(#k01-glow)"/>

  <g filter="url(#k01-shadow)">
    <g clip-path="url(#k01-mouth)">
      <rect x="20" y="44" width="61" height="38" rx="15" fill="url(#k01-slot)"/>
      <path d="M28 59.2C35.2 55.5 43.6 53.8 52.6 54.2C61.5 54.6 68.4 57.1 73.6 61.7V73.8H28Z" fill="#070A0C"/>
      <path d="M37.5 48.8V37.4C37.5 35.8 38.8 34.5 40.4 34.5H46.1C47.7 34.5 49 35.8 49 37.4V56.2" fill="url(#k01-tool)" opacity=".98"/>
      <path d="M51.3 50.5V30.7C51.3 29.1 52.6 27.8 54.2 27.8H60.4C62 27.8 63.3 29.1 63.3 30.7V58.4" fill="url(#k01-tool)" opacity=".96"/>
      <path d="M43.3 39.8H48.7" stroke="#5D6973" stroke-width="2.2" stroke-linecap="round" opacity=".72"/>
      <path d="M56.2 34.4H61.2" stroke="#5D6973" stroke-width="2.2" stroke-linecap="round" opacity=".72"/>
      <path d="M56.2 41.3H61.2" stroke="#5D6973" stroke-width="2.2" stroke-linecap="round" opacity=".72"/>
      <path d="M31.8 65.5C39.1 69.4 45.7 71.1 51.9 70.8C59.4 70.5 66 68.3 71.8 64.1V77.9H31.8Z" fill="#0E1417" opacity=".82"/>
    </g>

    <path d="M25.5 56.6C32.9 50.4 42.1 47.4 52.7 48C63.1 48.6 71.1 52.7 76.5 60.2" fill="none" stroke="url(#k01-lip)" stroke-width="9" stroke-linecap="round"/>
    <path d="M25.5 56.6C32.9 50.4 42.1 47.4 52.7 48C63.1 48.6 71.1 52.7 76.5 60.2" fill="none" stroke="#B9FFD0" stroke-width="2.3" stroke-linecap="round" opacity=".68"/>
    <path d="M25.5 67.8C31.4 73.8 39.7 76.8 50.5 76.8C61.5 76.8 70.1 73.9 76.5 68.2" fill="none" stroke="#222C31" stroke-width="4" stroke-linecap="round"/>
  </g>

  <circle cx="73" cy="31" r="5.4" fill="url(#k01-gold)"/>
  <circle cx="73" cy="31" r="2.1" fill="#FFF0A5" opacity=".86"/>
  <path d="M78.6 25.6L81.9 22.4" stroke="#F6C34B" stroke-width="2.4" stroke-linecap="round"/>
</svg>
