<svg xmlns="http://www.w3.org/2000/svg" viewBox="0 0 100 100" role="img" aria-labelledby="title desc">
  <title id="title">Eye Lab E-10 Inset Slot</title>
  <desc id="desc">Command capsule with the command line set into a shallow slot, adding depth to the center structure.</desc>
  <defs>
    <linearGradient id="bg" x1="12" y1="7" x2="88" y2="94" gradientUnits="userSpaceOnUse">
      <stop offset="0" stop-color="#34413c"/>
      <stop offset=".46" stop-color="#121917"/>
      <stop offset="1" stop-color="#050807"/>
    </linearGradient>
    <radialGradient id="glow" cx="58" cy="40" r="48" gradientUnits="userSpaceOnUse">
      <stop offset="0" stop-color="#63df83" stop-opacity=".15"/>
      <stop offset=".52" stop-color="#244830" stop-opacity=".09"/>
      <stop offset="1" stop-color="#000000" stop-opacity="0"/>
    </radialGradient>
    <linearGradient id="capsule" x1="18" y1="34" x2="82" y2="66" gradientUnits="userSpaceOnUse">
      <stop offset="0" stop-color="#ffffff"/>
      <stop offset=".48" stop-color="#eef7e8"/>
      <stop offset="1" stop-color="#bfdcc8"/>
    </linearGradient>
    <linearGradient id="slot" x1="47" y1="47" x2="67" y2="54" gradientUnits="userSpaceOnUse">
      <stop offset="0" stop-color="#d8e6da"/>
      <stop offset=".56" stop-color="#eef6ec"/>
      <stop offset="1" stop-color="#ffffff"/>
    </linearGradient>
    <linearGradient id="green" x1="58" y1="32" x2="77" y2="57" gradientUnits="userSpaceOnUse">
      <stop offset="0" stop-color="#d4ff82"/>
      <stop offset="1" stop-color="#25c879"/>
    </linearGradient>
    <filter id="shadow" x="-24%" y="-24%" width="148%" height="160%">
      <feDropShadow dx="2" dy="9" stdDeviation="6" flood-color="#000000" flood-opacity=".36"/>
    </filter>
  </defs>
  <rect x="5.5" y="5.5" width="89" height="89" rx="25.5" fill="url(#bg)"/>
  <rect x="5.5" y="5.5" width="89" height="89" rx="25.5" fill="url(#glow)"/>
  <g filter="url(#shadow)">
    <rect x="17.5" y="34.5" width="64" height="31" rx="15.5" fill="url(#capsule)"/>
    <circle cx="33" cy="49.5" r="6" fill="none" stroke="#627069" stroke-width="3"/>
    <path d="M39.1 54.2l4.5 4.5" stroke="#627069" stroke-width="2.8" stroke-linecap="round"/>
    <rect x="47.5" y="45.8" width="19" height="7.8" rx="3.9" fill="url(#slot)" opacity=".8"/>
    <path d="M50 49.5h11.5" stroke="#56625d" stroke-width="3.4" stroke-linecap="round"/>
    <circle cx="69.5" cy="49.5" r="5.8" fill="url(#green)"/>
    <circle cx="68.7" cy="47.5" r="1.45" fill="#efffd5" opacity=".82"/>
  </g>
  <path d="M58.5 29.2c6.8-4.4 14.8-3.1 20.2 2.8" fill="none" stroke="#76ee99" stroke-linecap="round" stroke-width="3.3"/>
</svg>
