<svg xmlns="http://www.w3.org/2000/svg" viewBox="0 0 100 100" role="img" aria-labelledby="title desc">
  <title id="title">Jingle candidate E-01</title>
  <desc id="desc">A dark native app icon with a centered golden bell rising from a command pocket.</desc>
  <defs>
    <linearGradient id="bg" x1="14" y1="8" x2="86" y2="94" gradientUnits="userSpaceOnUse">
      <stop offset="0" stop-color="#2c3430"/>
      <stop offset=".5" stop-color="#131916"/>
      <stop offset="1" stop-color="#060807"/>
    </linearGradient>
    <radialGradient id="glow" cx="50" cy="32" r="58" gradientUnits="userSpaceOnUse">
      <stop offset="0" stop-color="#31433b" stop-opacity=".82"/>
      <stop offset=".55" stop-color="#14201a" stop-opacity=".22"/>
      <stop offset="1" stop-color="#000000" stop-opacity="0"/>
    </radialGradient>
    <linearGradient id="bell" x1="35" y1="20" x2="65" y2="73" gradientUnits="userSpaceOnUse">
      <stop offset="0" stop-color="#fff0aa"/>
      <stop offset=".46" stop-color="#d99b28"/>
      <stop offset="1" stop-color="#8b5015"/>
    </linearGradient>
    <linearGradient id="pocket" x1="24" y1="59" x2="77" y2="88" gradientUnits="userSpaceOnUse">
      <stop offset="0" stop-color="#202a26"/>
      <stop offset=".58" stop-color="#101512"/>
      <stop offset="1" stop-color="#050606"/>
    </linearGradient>
    <linearGradient id="green" x1="18" y1="28" x2="82" y2="52" gradientUnits="userSpaceOnUse">
      <stop offset="0" stop-color="#98f178"/>
      <stop offset="1" stop-color="#20bd73"/>
    </linearGradient>
    <filter id="shadow" x="-20%" y="-20%" width="140%" height="150%">
      <feDropShadow dx="0" dy="7" stdDeviation="5" flood-color="#000000" flood-opacity=".42"/>
    </filter>
  </defs>
  <rect x="5.5" y="5.5" width="89" height="89" rx="25.5" fill="url(#bg)"/>
  <rect x="5.5" y="5.5" width="89" height="89" rx="25.5" fill="url(#glow)"/>
  <g fill="none" stroke="url(#green)" stroke-linecap="round">
    <path d="M19 48c1-9.4 5.9-17.3 13.7-22.2" stroke-width="4.7"/>
    <path d="M26.2 46.7c1.1-5.5 4.1-10.1 8.7-13.1" stroke-width="4.4" opacity=".72"/>
    <path d="M81 48c-1-9.4-5.9-17.3-13.7-22.2" stroke-width="4.7"/>
    <path d="M73.8 46.7c-1.1-5.5-4.1-10.1-8.7-13.1" stroke-width="4.4" opacity=".72"/>
  </g>
  <g filter="url(#shadow)">
    <path d="M23.5 63c0-6.6 5.3-11.7 12.1-11.7h28.8c6.8 0 12.1 5.1 12.1 11.7v10.7C76.5 82 69.6 87.8 61 87.8H39c-8.6 0-15.5-5.8-15.5-14.1z" fill="url(#pocket)"/>
    <path d="M29.2 61.2c6 5.2 35.6 5.2 41.6 0" fill="none" stroke="#ffffff" stroke-linecap="round" stroke-opacity=".23" stroke-width="4.4"/>
    <path d="M50 20.5c4.1 0 6.8 2.5 6.8 6.5v2.7c7.3 3.3 11.8 10.7 11.8 20.7v5.4l4.7 7.1c1.4 2.1-.1 4.9-2.7 4.9H29.4c-2.6 0-4.1-2.8-2.7-4.9l4.7-7.1v-5.4c0-10 4.5-17.4 11.8-20.7V27c0-4 2.7-6.5 6.8-6.5z" fill="url(#bell)"/>
    <path d="M36.6 35.6c6.3-6.4 20.2-7.7 28.1 3.1" fill="none" stroke="#fff1ba" stroke-linecap="round" stroke-width="4.4" opacity=".82"/>
    <path d="M36.2 56.4c5 2 22.6 2 27.6 0" fill="none" stroke="#ffe7a4" stroke-linecap="round" stroke-width="4"/>
    <circle cx="50" cy="69.6" r="5.7" fill="#b66b1e"/>
    <circle cx="50" cy="69.6" r="2.4" fill="#efc15d" opacity=".9"/>
    <rect x="39.4" y="76.2" width="21.2" height="9.6" rx="4.8" fill="#101612" stroke="#38e883" stroke-width="2.6"/>
    <path d="M45.3 81h9.4" stroke="#ceffd9" stroke-width="2.1" stroke-linecap="round"/>
  </g>
</svg>
