<svg xmlns="http://www.w3.org/2000/svg" viewBox="0 0 100 100" role="img" aria-labelledby="title desc">
  <title id="title">Jingle candidate E-04</title>
  <desc id="desc">A compact abstract Jingle mark combining a J-shaped chime, pocket curve, and signal dot.</desc>
  <defs>
    <linearGradient id="bg" x1="14" y1="7" x2="84" y2="93" gradientUnits="userSpaceOnUse">
      <stop offset="0" stop-color="#f8fff4"/>
      <stop offset=".45" stop-color="#b9efbd"/>
      <stop offset="1" stop-color="#2a9a67"/>
    </linearGradient>
    <linearGradient id="mark" x1="34" y1="21" x2="61" y2="82" gradientUnits="userSpaceOnUse">
      <stop offset="0" stop-color="#193b34"/>
      <stop offset="1" stop-color="#071f1b"/>
    </linearGradient>
    <linearGradient id="gold" x1="50" y1="20" x2="59" y2="33" gradientUnits="userSpaceOnUse">
      <stop offset="0" stop-color="#fff4a7"/>
      <stop offset="1" stop-color="#d99a28"/>
    </linearGradient>
    <linearGradient id="signal" x1="63" y1="28" x2="84" y2="59" gradientUnits="userSpaceOnUse">
      <stop offset="0" stop-color="#eefc96"/>
      <stop offset="1" stop-color="#36d978"/>
    </linearGradient>
    <filter id="shadow" x="-20%" y="-20%" width="140%" height="150%">
      <feDropShadow dx="0" dy="8" stdDeviation="7" flood-color="#0d5a3d" flood-opacity=".24"/>
    </filter>
  </defs>
  <rect x="5" y="5" width="90" height="90" rx="25" fill="url(#bg)"/>
  <path d="M20 27c12-11 33-14 49-6" fill="none" stroke="#ffffff" stroke-width="2.2" stroke-linecap="round" opacity=".58"/>
  <g filter="url(#shadow)">
    <path d="M56.5 24.5v33.7c0 12.8-8.4 21.2-20.6 21.2-5.7 0-10.4-1.6-13.9-4.7" fill="none" stroke="url(#mark)" stroke-width="10.5" stroke-linecap="round" stroke-linejoin="round"/>
    <path d="M26.5 60c7.6 9.9 37.8 10.2 47 0" fill="none" stroke="#ffffff" stroke-width="7.3" stroke-linecap="round"/>
    <path d="M30.2 60.4c8.3 5.2 30.7 5.3 39.2 0" fill="none" stroke="#17372f" stroke-width="2.8" stroke-linecap="round" opacity=".24"/>
    <circle cx="56.5" cy="24.5" r="5.4" fill="url(#gold)"/>
  </g>
  <g fill="none" stroke="url(#signal)" stroke-linecap="round">
    <path d="M65 31.6c5.2 4.3 7.1 10.4 5.6 17" stroke-width="5"/>
    <path d="M73.2 25.7c9.4 8.2 12.1 21.4 6.9 32.8" stroke-width="3.5" opacity=".9"/>
    <path d="M80.2 20.3c12.6 11.6 15.1 30.2 6.5 44.5" stroke-width="2.4" opacity=".58"/>
  </g>
</svg>
