<svg xmlns="http://www.w3.org/2000/svg" viewBox="0 0 100 100" role="img" aria-label="Jingle icon candidate B03">
  <defs>
    <linearGradient id="b03-bg" x1="12" y1="7" x2="86" y2="94" gradientUnits="userSpaceOnUse">
      <stop offset="0" stop-color="#F7FFF3"/>
      <stop offset="0.43" stop-color="#BFEFBC"/>
      <stop offset="1" stop-color="#2C9D68"/>
    </linearGradient>
    <linearGradient id="b03-j" x1="40" y1="21" x2="41" y2="82" gradientUnits="userSpaceOnUse">
      <stop offset="0" stop-color="#183F36"/>
      <stop offset="1" stop-color="#081F1C"/>
    </linearGradient>
    <linearGradient id="b03-signal" x1="55" y1="20" x2="82" y2="68" gradientUnits="userSpaceOnUse">
      <stop offset="0" stop-color="#F0FF96"/>
      <stop offset="1" stop-color="#2EE36D"/>
    </linearGradient>
    <filter id="b03-depth" x="-16%" y="-18%" width="132%" height="146%">
      <feDropShadow dx="0" dy="8" stdDeviation="7" flood-color="#0D5E3C" flood-opacity="0.23"/>
    </filter>
  </defs>
  <rect width="100" height="100" rx="22" fill="url(#b03-bg)"/>
  <path d="M20 26C31.5 14.8 51.8 11.6 67 18" fill="none" stroke="#FFFFFF" stroke-width="2.2" stroke-linecap="round" opacity="0.56"/>
  <g filter="url(#b03-depth)">
    <path d="M54.5 22V58.4C54.5 70.9 45.6 79 33.5 79C28.4 79 24.1 77.8 20.8 75.2" fill="none" stroke="url(#b03-j)" stroke-width="10" stroke-linecap="round" stroke-linejoin="round"/>
    <path d="M25.3 59.6C32.9 69.8 61.2 70.2 70.7 59.5" fill="none" stroke="#FFFFFF" stroke-width="7.4" stroke-linecap="round"/>
    <path d="M29 60C37.8 65.2 58.4 65.5 67.2 60" fill="none" stroke="#123B31" stroke-width="2.7" stroke-linecap="round" opacity="0.25"/>
  </g>
  <path d="M61 30C67.9 34.2 70.6 41.9 67.7 49.6" fill="none" stroke="url(#b03-signal)" stroke-width="5.3" stroke-linecap="round"/>
  <path d="M69.4 24.9C79.3 32.3 82.8 45.1 77.3 56.1" fill="none" stroke="#EAFFB1" stroke-width="3.6" stroke-linecap="round" opacity="0.94"/>
  <path d="M75.8 19.5C88.3 29.8 91.2 47.8 82.4 62.2" fill="none" stroke="#FFFFFF" stroke-width="2.4" stroke-linecap="round" opacity="0.6"/>
  <circle cx="55" cy="22" r="4.2" fill="#F3FFB3"/>
</svg>
