<svg xmlns="http://www.w3.org/2000/svg" viewBox="0 0 100 100" role="img" aria-labelledby="title desc">
  <title id="title">Jingle app icon candidate D-03</title>
  <desc id="desc">A compact green app icon combining a rounded pocket, a bell dot, and launcher signal rings.</desc>
  <defs>
    <linearGradient id="bg" x1="18" y1="8" x2="83" y2="92" gradientUnits="userSpaceOnUse">
      <stop offset="0" stop-color="#C8FFD9"/>
      <stop offset=".5" stop-color="#20C978"/>
      <stop offset="1" stop-color="#087B65"/>
    </linearGradient>
    <linearGradient id="badge" x1="31" y1="23" x2="70" y2="77" gradientUnits="userSpaceOnUse">
      <stop offset="0" stop-color="#F7FFF7"/>
      <stop offset=".55" stop-color="#D8FFE2"/>
      <stop offset="1" stop-color="#8DEBB4"/>
    </linearGradient>
    <linearGradient id="gold" x1="39" y1="34" x2="63" y2="70" gradientUnits="userSpaceOnUse">
      <stop offset="0" stop-color="#FFF7B5"/>
      <stop offset=".55" stop-color="#FFC743"/>
      <stop offset="1" stop-color="#E97823"/>
    </linearGradient>
    <filter id="shadow" x="-20%" y="-20%" width="140%" height="145%" color-interpolation-filters="sRGB">
      <feDropShadow dx="0" dy="6" stdDeviation="4" flood-color="#063D32" flood-opacity=".26"/>
    </filter>
  </defs>
  <rect width="100" height="100" rx="24" fill="url(#bg)"/>
  <circle cx="72" cy="27" r="22" fill="#FFFFFF" opacity=".12"/>
  <circle cx="26" cy="76" r="18" fill="#005A4A" opacity=".1"/>
  <g filter="url(#shadow)">
    <path d="M50 17c17 0 31 14 31 31v4c0 17-14 31-31 31S19 69 19 52v-4c0-17 14-31 31-31Z" fill="url(#badge)"/>
    <path d="M28 55c0-5 4-9 9-9h26c5 0 9 4 9 9v5c0 12-10 21-22 21S28 72 28 60v-5Z" fill="#0B5C4B"/>
    <path d="M34 55c0-2 2-4 4-4h24c2 0 4 2 4 4v1c0 2-2 4-4 4H38c-2 0-4-2-4-4v-1Z" fill="#F3FFF6"/>
    <path d="M39 47c0-8 5-14 12-14s12 6 12 14v8c0 3 1 6 4 9H35c3-3 4-6 4-9v-8Z" fill="url(#gold)"/>
    <path d="M45 34c0-4 3-6 6-6s6 2 6 6v3H45v-3Z" fill="#FFE88A"/>
    <path d="M40 54c5 3 17 3 22 0" fill="none" stroke="#FFF9C7" stroke-width="4" stroke-linecap="round" opacity=".78"/>
    <circle cx="51" cy="65" r="5.5" fill="#FFE074"/>
  </g>
  <path d="M51 22v-6" stroke="#FFFFFF" stroke-width="4" stroke-linecap="round" opacity=".88"/>
  <path d="M34 28l-4-5" stroke="#FFFFFF" stroke-width="4" stroke-linecap="round" opacity=".78"/>
  <path d="M68 29l5-5" stroke="#FFFFFF" stroke-width="4" stroke-linecap="round" opacity=".78"/>
  <path d="M77 49c6 5 6 14 0 19" fill="none" stroke="#FFFFFF" stroke-width="5" stroke-linecap="round" opacity=".9"/>
  <path d="M84 43c10 8 10 24 0 32" fill="none" stroke="#CFFFF0" stroke-width="3.5" stroke-linecap="round" opacity=".82"/>
  <circle cx="20" cy="28" r="4" fill="#F3FFF7" opacity=".9"/>
  <circle cx="14" cy="40" r="2.4" fill="#F3FFF7" opacity=".72"/>
</svg>
