<svg xmlns="http://www.w3.org/2000/svg" viewBox="0 0 100 100" role="img" aria-label="Jingle app icon candidate A 02">
  <defs>
    <linearGradient id="bg" x1="14" y1="12" x2="86" y2="91" gradientUnits="userSpaceOnUse">
      <stop offset="0" stop-color="#2b2f35"/>
      <stop offset="0.48" stop-color="#15191e"/>
      <stop offset="1" stop-color="#080a0d"/>
    </linearGradient>
    <linearGradient id="rim" x1="22" y1="6" x2="78" y2="96" gradientUnits="userSpaceOnUse">
      <stop offset="0" stop-color="#69717b" stop-opacity="0.62"/>
      <stop offset="0.42" stop-color="#2c3339" stop-opacity="0.16"/>
      <stop offset="1" stop-color="#000000" stop-opacity="0"/>
    </linearGradient>
    <linearGradient id="bellGold" x1="30" y1="23" x2="72" y2="70" gradientUnits="userSpaceOnUse">
      <stop offset="0" stop-color="#fff4a9"/>
      <stop offset="0.28" stop-color="#ffc83e"/>
      <stop offset="0.7" stop-color="#b96d10"/>
      <stop offset="1" stop-color="#5e3707"/>
    </linearGradient>
    <linearGradient id="bellEdge" x1="35" y1="28" x2="64" y2="71" gradientUnits="userSpaceOnUse">
      <stop offset="0" stop-color="#fff8c4"/>
      <stop offset="1" stop-color="#d88d18"/>
    </linearGradient>
    <linearGradient id="signal" x1="18" y1="25" x2="82" y2="65" gradientUnits="userSpaceOnUse">
      <stop offset="0" stop-color="#a4ff92"/>
      <stop offset="0.55" stop-color="#28f06f"/>
      <stop offset="1" stop-color="#08a952"/>
    </linearGradient>
    <filter id="shadow" x="-20%" y="-20%" width="140%" height="150%">
      <feDropShadow dx="0" dy="8" stdDeviation="5.5" flood-color="#000000" flood-opacity="0.46"/>
    </filter>
  </defs>
  <rect width="100" height="100" rx="22" fill="url(#bg)"/>
  <rect x="3" y="2.5" width="94" height="95" rx="20" fill="none" stroke="url(#rim)" stroke-width="1.3"/>
  <path d="M29 28c-6.5 4.6-10.4 12-10.4 20s3.9 15.4 10.4 20" fill="none" stroke="url(#signal)" stroke-width="4.2" stroke-linecap="round" opacity="0.42"/>
  <path d="M71 28c6.5 4.6 10.4 12 10.4 20S77.5 63.4 71 68" fill="none" stroke="url(#signal)" stroke-width="4.2" stroke-linecap="round" opacity="0.42"/>
  <path d="M34.4 38c-3 2.8-4.9 6.6-4.9 10s1.9 7.2 4.9 10" fill="none" stroke="url(#signal)" stroke-width="4.8" stroke-linecap="round"/>
  <path d="M65.6 38c3 2.8 4.9 6.6 4.9 10s-1.9 7.2-4.9 10" fill="none" stroke="url(#signal)" stroke-width="4.8" stroke-linecap="round"/>
  <g filter="url(#shadow)">
    <path d="M45.2 31.6c.6-3.1 2.4-5.2 4.8-5.2s4.2 2.1 4.8 5.2l.8 4.6c5.9 2.5 10.2 8.6 11 16.7l.8 8.7 4.7 6.1c1 1.3.1 3.1-1.6 3.1h-41c-1.7 0-2.6-1.8-1.6-3.1l4.7-6.1.8-8.7c.8-8.1 5.1-14.2 11-16.7l.8-4.6Z" fill="url(#bellGold)"/>
    <path d="M36.7 61.8h26.6l-.6-7.8c-.7-8.9-5.9-15.2-12.7-15.2S38 45.1 37.3 54l-.6 7.8Z" fill="url(#bellEdge)" opacity="0.46"/>
    <path d="M42.2 42.8c2.1-2.5 4.8-3.8 7.8-3.8" fill="none" stroke="#fff6be" stroke-width="2.2" stroke-linecap="round" opacity="0.7"/>
    <path d="M37.2 62.3h25.6" fill="none" stroke="#7b4709" stroke-width="2" stroke-linecap="round" opacity="0.36"/>
    <circle cx="50" cy="71.6" r="5.1" fill="#ffc34b"/>
    <circle cx="50" cy="71.6" r="2.1" fill="#fff1a1"/>
  </g>
  <path d="M20.5 73.3c8.7 6.2 18.5 9.3 29.5 9.3s20.8-3.1 29.5-9.3v13.2c0 2.8-2.2 5-5 5h-49c-2.8 0-5-2.2-5-5V73.3Z" fill="#07090a" opacity="0.82"/>
  <path d="M22.2 74.4c8.2 5.3 17.5 8 27.8 8s19.6-2.7 27.8-8" fill="none" stroke="#2f363a" stroke-width="2.2" stroke-linecap="round"/>
  <g>
    <rect x="38.3" y="76.8" width="23.4" height="9.8" rx="4.9" fill="#111619" stroke="#273238" stroke-width="1.5"/>
    <circle cx="45" cy="81.7" r="2.5" fill="#2cf06f"/>
    <path d="M51 81.7h6.7" stroke="#c5ffd1" stroke-width="2" stroke-linecap="round" opacity="0.88"/>
  </g>
</svg>
