<svg xmlns="http://www.w3.org/2000/svg" viewBox="0 0 100 100" role="img" aria-labelledby="title desc">
  <title id="title">Jingle candidate G-01</title>
  <desc id="desc">Single-subject icon: a green and gold rounded portal ring, with sound and pocket cues reduced to faint dots and shadows.</desc>
  <defs>
    <linearGradient id="bg" x1="14" y1="7" x2="86" y2="94" gradientUnits="userSpaceOnUse">
      <stop offset="0" stop-color="#26332d"/>
      <stop offset=".54" stop-color="#101714"/>
      <stop offset="1" stop-color="#050807"/>
    </linearGradient>
    <radialGradient id="halo" cx="50" cy="45" r="43" gradientUnits="userSpaceOnUse">
      <stop offset="0" stop-color="#36543d" stop-opacity=".72"/>
      <stop offset=".62" stop-color="#132117" stop-opacity=".2"/>
      <stop offset="1" stop-color="#000000" stop-opacity="0"/>
    </radialGradient>
    <linearGradient id="portal" x1="28" y1="20" x2="73" y2="82" gradientUnits="userSpaceOnUse">
      <stop offset="0" stop-color="#fff0a2"/>
      <stop offset=".23" stop-color="#d8c846"/>
      <stop offset=".56" stop-color="#55d16f"/>
      <stop offset="1" stop-color="#08925a"/>
    </linearGradient>
    <linearGradient id="innerEdge" x1="37" y1="27" x2="65" y2="74" gradientUnits="userSpaceOnUse">
      <stop offset="0" stop-color="#f8ffc0"/>
      <stop offset=".44" stop-color="#78ec86"/>
      <stop offset="1" stop-color="#0c6c48"/>
    </linearGradient>
    <radialGradient id="core" cx="48" cy="42" r="31" gradientUnits="userSpaceOnUse">
      <stop offset="0" stop-color="#23342c"/>
      <stop offset=".7" stop-color="#0a1110"/>
      <stop offset="1" stop-color="#030504"/>
    </radialGradient>
    <filter id="softShadow" x="-24%" y="-22%" width="148%" height="154%">
      <feDropShadow dx="0" dy="8" stdDeviation="6" flood-color="#000000" flood-opacity=".42"/>
    </filter>
  </defs>
  <rect x="5.5" y="5.5" width="89" height="89" rx="25.5" fill="url(#bg)"/>
  <rect x="5.5" y="5.5" width="89" height="89" rx="25.5" fill="url(#halo)"/>
  <ellipse cx="50" cy="79" rx="24.5" ry="8" fill="#000000" opacity=".25"/>
  <g filter="url(#softShadow)">
    <rect x="27.5" y="17" width="45" height="66" rx="22.5" fill="url(#portal)"/>
    <rect x="36.5" y="28" width="27" height="44" rx="13.5" fill="url(#core)"/>
    <path d="M40.5 33c5.7-6 15.6-5.6 20.4.9" fill="none" stroke="url(#innerEdge)" stroke-width="3.5" stroke-linecap="round" opacity=".78"/>
    <path d="M34.5 55.5c2.3 8.6 8.1 14 15.5 14 6.6 0 12-4.3 14.8-11.3" fill="none" stroke="#f1df74" stroke-width="2.5" stroke-linecap="round" opacity=".42"/>
    <path d="M32 39.5c2.5-9 9.1-15.4 17.5-16.2" fill="none" stroke="#ffffc3" stroke-width="3.2" stroke-linecap="round" opacity=".55"/>
  </g>
  <g fill="#b8f56f" opacity=".5">
    <circle cx="23" cy="42" r="1.8"/>
    <circle cx="78" cy="39" r="1.5"/>
    <circle cx="75" cy="58" r="1.3"/>
  </g>
  <path d="M26 76.5c7.1 4 15.1 6 24 6s16.9-2 24-6" fill="none" stroke="#c6a648" stroke-width="2.4" stroke-linecap="round" opacity=".22"/>
</svg>
