<svg xmlns="http://www.w3.org/2000/svg" viewBox="0 0 100 100" role="img" aria-labelledby="title desc">
  <title id="title">Jingle candidate F-02</title>
  <desc id="desc">Single-subject icon: a universal pocket as the only hero, with tools implied by a light signal.</desc>
  <defs>
    <linearGradient id="bg" x1="14" y1="8" x2="86" y2="94" gradientUnits="userSpaceOnUse">
      <stop offset="0" stop-color="#f6fff1"/>
      <stop offset=".48" stop-color="#8fe79b"/>
      <stop offset="1" stop-color="#178561"/>
    </linearGradient>
    <linearGradient id="pocket" x1="22" y1="31" x2="79" y2="82" gradientUnits="userSpaceOnUse">
      <stop offset="0" stop-color="#153d35"/>
      <stop offset=".56" stop-color="#0e2b27"/>
      <stop offset="1" stop-color="#061a18"/>
    </linearGradient>
    <linearGradient id="edge" x1="27" y1="42" x2="73" y2="62" gradientUnits="userSpaceOnUse">
      <stop offset="0" stop-color="#ffffff"/>
      <stop offset="1" stop-color="#ddffe6"/>
    </linearGradient>
    <filter id="shadow" x="-20%" y="-20%" width="140%" height="150%">
      <feDropShadow dx="0" dy="8" stdDeviation="6" flood-color="#054332" flood-opacity=".28"/>
    </filter>
  </defs>
  <rect x="5.5" y="5.5" width="89" height="89" rx="25.5" fill="url(#bg)"/>
  <path d="M17 69c11 13.5 29.8 18.4 46 11.5 16.8-7.1 24.4-25 18.4-41.7C73.8 18.3 50 10.1 31.4 22.1 15.7 32.2 10.4 52 17 69z" fill="#ffffff" opacity=".15"/>
  <g filter="url(#shadow)">
    <path d="M20.5 50.5c0-8.3 6.6-14.6 15-14.6h29c8.4 0 15 6.3 15 14.6V63c0 15.2-12.3 26.3-27.5 26.3h-4C32.8 89.3 20.5 78.2 20.5 63z" fill="url(#pocket)"/>
    <path d="M27.5 50.5c6.9 7 38.1 7 45 0" fill="none" stroke="url(#edge)" stroke-linecap="round" stroke-width="6.2"/>
    <path d="M33 66h34" stroke="#ffffff" stroke-linecap="round" stroke-width="3.2" opacity=".14"/>
    <circle cx="50" cy="35.5" r="5.6" fill="#f5c35b"/>
    <path d="M43.5 28.5c3.7-3 9.3-3 13 0" fill="none" stroke="#fff2a8" stroke-linecap="round" stroke-width="3.2"/>
  </g>
  <g fill="none" stroke="#f1ffe4" stroke-linecap="round" opacity=".86">
    <path d="M31 25c5-4 11.3-6.1 19-6.1S64 21 69 25" stroke-width="2.8"/>
    <path d="M37 29c3.4-2.3 7.7-3.5 13-3.5s9.6 1.2 13 3.5" stroke-width="2.5" opacity=".7"/>
  </g>
</svg>
