<svg xmlns="http://www.w3.org/2000/svg" viewBox="0 0 100 100" role="img" aria-label="Magical drawer portal">
  <defs>
    <linearGradient id="v5-bg" x1="15" y1="11" x2="86" y2="91" gradientUnits="userSpaceOnUse">
      <stop offset="0" stop-color="#343734"/>
      <stop offset=".52" stop-color="#151816"/>
      <stop offset="1" stop-color="#070807"/>
    </linearGradient>
    <linearGradient id="v5-gold" x1="36" y1="32" x2="62" y2="72" gradientUnits="userSpaceOnUse">
      <stop offset="0" stop-color="#fff0b9"/>
      <stop offset=".48" stop-color="#d99d2f"/>
      <stop offset="1" stop-color="#895019"/>
    </linearGradient>
    <radialGradient id="v5-glow" cx="50%" cy="62%" r="43%">
      <stop offset="0" stop-color="#f5b646" stop-opacity=".62"/>
      <stop offset=".56" stop-color="#c17722" stop-opacity=".22"/>
      <stop offset="1" stop-color="#000000" stop-opacity="0"/>
    </radialGradient>
  </defs>
  <rect x="9" y="9" width="82" height="82" rx="22" fill="url(#v5-bg)"/>
  <path d="M20 64c0-7.5 6-13 13.5-13h33C74 51 80 56.5 80 64v11c0 7-5.5 11-12.6 11H32.6C25.5 86 20 82 20 75z" fill="#111412"/>
  <path d="M24 59.5c6.8 6.8 45.2 6.8 52 0" fill="none" stroke="#fff" stroke-linecap="round" stroke-opacity=".18" stroke-width="4.6"/>
  <rect x="28" y="27" width="44" height="42" rx="12" fill="url(#v5-glow)"/>
  <path d="M50 32c3.7 0 5.8 2.2 5.8 5.4v1c6.6 2.4 10.8 8.6 10.8 17.1v5.7H33.4v-5.7c0-8.5 4.2-14.7 10.8-17.1v-1c0-3.2 2.1-5.4 5.8-5.4z" fill="url(#v5-gold)"/>
  <circle cx="50" cy="66" r="4.2" fill="#b56b1f"/>
  <path d="M40 75h20" fill="none" stroke="#e3a43c" stroke-linecap="round" stroke-width="3.6"/>
  <g fill="#f8d879">
    <path d="M28 30l1.8 4.4 4.2 1.6-4.2 1.6L28 42l-1.8-4.4L22 36l4.2-1.6z"/>
    <path d="M71 22l1.2 3 2.8 1.1-2.8 1.1-1.2 3-1.2-3-2.8-1.1 2.8-1.1z"/>
    <circle cx="65" cy="36" r="1.8"/>
    <circle cx="36" cy="40" r="1.3"/>
  </g>
</svg>
