<svg xmlns="http://www.w3.org/2000/svg" viewBox="0 0 100 100" role="img" aria-label="Desktop command tile">
  <defs>
    <linearGradient id="v4-bg" x1="16" y1="13" x2="86" y2="86" gradientUnits="userSpaceOnUse">
      <stop offset="0" stop-color="#343734"/>
      <stop offset=".55" stop-color="#151816"/>
      <stop offset="1" stop-color="#080a09"/>
    </linearGradient>
    <linearGradient id="v4-gold" x1="31" y1="34" x2="69" y2="73" gradientUnits="userSpaceOnUse">
      <stop offset="0" stop-color="#fff0b9"/>
      <stop offset=".52" stop-color="#d79a28"/>
      <stop offset="1" stop-color="#7d4814"/>
    </linearGradient>
    <linearGradient id="v4-green" x1="70" y1="19" x2="83" y2="33" gradientUnits="userSpaceOnUse">
      <stop offset="0" stop-color="#b8ff91"/>
      <stop offset="1" stop-color="#2dbb74"/>
    </linearGradient>
  </defs>
  <rect x="8" y="8" width="84" height="84" rx="23" fill="url(#v4-bg)"/>
  <rect x="9" y="9" width="82" height="82" rx="22" fill="none" stroke="#fff" stroke-opacity=".14"/>
  <g fill="none" stroke="url(#v4-gold)" stroke-linecap="round" stroke-linejoin="round" stroke-width="7.4">
    <path d="M42 50h16"/>
    <path d="M50 42v16"/>
    <path d="M38 50c-6.3 0-10-3.9-10-9.3 0-5.2 3.8-8.7 8.5-8.7 5.4 0 9.5 4.5 13.5 10"/>
    <path d="M62 50c6.3 0 10-3.9 10-9.3 0-5.2-3.8-8.7-8.5-8.7-5.4 0-9.5 4.5-13.5 10"/>
    <path d="M38 50c-6.3 0-10 3.9-10 9.3 0 5.2 3.8 8.7 8.5 8.7 5.4 0 9.5-4.5 13.5-10"/>
    <path d="M62 50c6.3 0 10 3.9 10 9.3 0 5.2-3.8 8.7-8.5 8.7-5.4 0-9.5-4.5-13.5-10"/>
  </g>
  <circle cx="76" cy="24" r="7.5" fill="url(#v4-green)"/>
  <circle cx="76" cy="24" r="11" fill="#55d76c" opacity=".14"/>
</svg>
